<svg width="32" height="32" viewBox="0 0 32 32" fill="none" xmlns="http://www.w3.org/2000/svg">
<mask id="mask0_4079_511" style="mask-type:alpha" maskUnits="userSpaceOnUse" x="0" y="0" width="32" height="32">
<rect width="32" height="32" fill="#D9D9D9"/>
</mask>
<g mask="url(#mask0_4079_511)">
<path d="M9.22831 16.6667L16.4793 23.918C16.6093 24.0478 16.6773 24.2008 16.6833 24.377C16.6893 24.553 16.6188 24.7146 16.4716 24.8617C16.3248 25.0034 16.1675 25.0757 16 25.0783C15.8324 25.0808 15.6752 25.0086 15.5283 24.8617L7.42065 16.754C7.3042 16.6376 7.22254 16.5187 7.17565 16.3973C7.12854 16.276 7.10498 16.1436 7.10498 16C7.10498 15.8564 7.12854 15.724 7.17565 15.6027C7.22254 15.4813 7.3042 15.3624 7.42065 15.246L15.5283 7.13833C15.653 7.01367 15.8046 6.947 15.9833 6.93833C16.162 6.92989 16.3248 6.99656 16.4716 7.13833C16.6188 7.28545 16.6923 7.444 16.6923 7.614C16.6923 7.78422 16.6188 7.94278 16.4716 8.08967L9.22831 15.3333H24.6666C24.8564 15.3333 25.015 15.397 25.1423 15.5243C25.2696 15.6517 25.3333 15.8102 25.3333 16C25.3333 16.1898 25.2696 16.3483 25.1423 16.4757C25.015 16.603 24.8564 16.6667 24.6666 16.6667H9.22831Z" fill="white"/>
</g>
</svg>
