<svg width="31" height="30" viewBox="0 0 31 30" fill="none" xmlns="http://www.w3.org/2000/svg">
<path d="M15.5063 0C7.21885 0 0.50635 6.7125 0.50635 15C0.504649 18.1489 1.49457 21.2184 3.33567 23.773C5.17678 26.3276 7.77557 28.2376 10.7633 29.232C11.5133 29.3625 11.7938 28.9125 11.7938 28.518C11.7938 28.1625 11.7743 26.982 11.7743 25.725C8.00635 26.4195 7.03135 24.807 6.73135 23.9625C6.56185 23.5305 5.83135 22.2 5.19385 21.843C4.66885 21.5625 3.91885 20.868 5.17435 20.85C6.35635 20.8305 7.19935 21.9375 7.48135 22.3875C8.83135 24.6555 10.9883 24.018 11.8493 23.625C11.9813 22.65 12.3743 21.9945 12.8063 21.6195C9.46885 21.2445 5.98135 19.95 5.98135 14.2125C5.98135 12.5805 6.56185 11.232 7.51885 10.1805C7.36885 9.8055 6.84385 8.268 7.66885 6.2055C7.66885 6.2055 8.92435 5.8125 11.7938 7.7445C13.0149 7.40559 14.2766 7.23501 15.5438 7.2375C16.8188 7.2375 18.0938 7.4055 19.2938 7.743C22.1618 5.793 23.4188 6.207 23.4188 6.207C24.2438 8.2695 23.7188 9.807 23.5688 10.182C24.5243 11.232 25.1063 12.5625 25.1063 14.2125C25.1063 19.9695 21.6008 21.2445 18.2633 21.6195C18.8063 22.0875 19.2758 22.9875 19.2758 24.3945C19.2758 26.4 19.2563 28.0125 19.2563 28.5195C19.2563 28.9125 19.5383 29.3805 20.2883 29.2305C23.2659 28.2252 25.8532 26.3115 27.6862 23.7587C29.5192 21.206 30.5055 18.1427 30.5063 15C30.5063 6.7125 23.7938 0 15.5063 0Z" fill="white"/>
</svg>
